<svg id="Layer_1" data-name="Layer 1" xmlns="http://www.w3.org/2000/svg" viewBox="0 0 114 186"><defs><style>.cls-1{fill:#ffaf40;}.cls-2{fill:#ffef40;}.cls-3{fill:#fff;}.cls-4{fill:#ff4046;}.cls-5{fill:#ff7040;}</style></defs><title>fire-8</title><rect class="cls-1" x="86" y="142" width="14" height="29"/><rect class="cls-2" x="71" y="157" width="15" height="14"/><rect class="cls-2" x="29" y="157" width="14" height="14"/><rect class="cls-3" x="43" y="157" width="28" height="14"/><rect class="cls-1" x="71" y="143" width="15" height="14"/><rect class="cls-1" x="14" y="143" width="15" height="28"/><rect class="cls-2" x="29" y="143" width="42" height="14"/><rect class="cls-2" x="29" y="171" width="57" height="15"/><rect class="cls-1" x="14" y="114" width="72" height="15"/><rect class="cls-2" x="71" y="143" width="15" height="14"/><rect class="cls-4" x="86" y="86" width="14" height="14"/><rect class="cls-5" x="86" y="100" width="14" height="29"/><rect class="cls-1" x="43" y="100" width="14" height="14"/><rect class="cls-4" x="14" y="86" width="15" height="14"/><rect class="cls-2" x="57" y="143" width="14" height="14"/><rect class="cls-1" x="14" y="129" width="86" height="14"/><rect class="cls-2" x="29" y="129" width="42" height="14"/><rect class="cls-5" x="100" y="114" width="14" height="43"/><rect class="cls-1" x="29" y="100" width="14" height="14"/><rect class="cls-1" x="14" y="100" width="15" height="14"/><rect class="cls-4" y="114" width="14" height="43"/><rect class="cls-5" x="71" y="100" width="15" height="14"/><rect class="cls-4" x="100" y="86" width="14" height="28"/><rect class="cls-4" y="100" width="14" height="14"/><rect class="cls-4" y="86" width="14" height="14"/><rect class="cls-4" x="14" y="71" width="29" height="15"/><rect class="cls-1" x="29" y="86" width="14" height="14"/><rect class="cls-4" x="71" y="71" width="15" height="15"/><rect class="cls-4" x="86" y="57" width="14" height="14"/><rect class="cls-4" x="43" width="14" height="14"/><rect class="cls-3" x="57" y="143" width="14" height="14"/><rect class="cls-4" x="100" y="71" width="14" height="15"/><rect class="cls-5" x="86" y="71" width="14" height="15"/><rect class="cls-4" x="71" y="29" width="15" height="14"/></svg>