<?xml version="1.0" encoding="utf-8"?>
<!-- Generator: Adobe Illustrator 23.0.1, SVG Export Plug-In . SVG Version: 6.00 Build 0)  -->
<svg version="1.1" id="Layer_1" xmlns="http://www.w3.org/2000/svg" xmlns:xlink="http://www.w3.org/1999/xlink" x="0px" y="0px"
	 viewBox="0 0 114 172" style="enable-background:new 0 0 114 172;" xml:space="preserve">
<style type="text/css">
	.st0{fill:#FFAF40;}
	.st1{fill:#FFEF40;}
	.st2{fill:#FFFFFF;}
	.st3{fill:#FF4046;}
	.st4{fill:#FF7040;}
</style>
<title>fire-9</title>
<rect x="86" y="128" class="st0" width="14" height="29"/>
<rect x="71" y="143" class="st1" width="15" height="14"/>
<rect x="29" y="143" class="st1" width="14" height="14"/>
<rect x="43" y="143" class="st2" width="28" height="14"/>
<rect x="71" y="129" class="st0" width="15" height="14"/>
<rect x="14" y="129" class="st0" width="15" height="28"/>
<rect x="29" y="129" class="st1" width="42" height="14"/>
<rect x="29" y="157" class="st1" width="57" height="15"/>
<rect x="14" y="100" class="st0" width="72" height="15"/>
<rect x="71" y="129" class="st1" width="15" height="14"/>
<rect x="71" y="72" class="st3" width="29" height="14"/>
<rect x="86" y="86" class="st4" width="14" height="29"/>
<rect x="43" y="86" class="st0" width="14" height="14"/>
<rect x="14" y="72" class="st3" width="15" height="14"/>
<rect x="57" y="129" class="st1" width="14" height="14"/>
<rect x="14" y="115" class="st0" width="86" height="14"/>
<rect x="29" y="115" class="st1" width="42" height="14"/>
<rect x="100" y="100" class="st4" width="14" height="43"/>
<rect x="29" y="86" class="st0" width="14" height="14"/>
<rect x="14" y="86" class="st0" width="15" height="14"/>
<rect y="100" class="st3" width="14" height="43"/>
<rect x="71" y="86" class="st4" width="15" height="14"/>
<rect x="100" y="72" class="st3" width="14" height="28"/>
<rect y="86" class="st3" width="14" height="14"/>
<rect y="72" class="st3" width="14" height="14"/>
<rect x="14" y="57" class="st3" width="29" height="15"/>
<rect x="29" y="72" class="st0" width="14" height="14"/>
<rect x="71" y="57" class="st3" width="29" height="15"/>
<rect x="86" y="43" class="st3" width="14" height="14"/>
<rect x="71" y="29" class="st3" width="15" height="14"/>
<rect x="43" class="st3" width="14" height="15"/>
<rect x="57" y="129" class="st2" width="14" height="14"/>
</svg>
