<svg id="Layer_1" data-name="Layer 1" xmlns="http://www.w3.org/2000/svg" viewBox="0 0 86 100"><defs><style>.cls-1{fill:#ffaf40;}.cls-2{fill:#ffef40;}.cls-3{fill:#fff;}.cls-4{fill:#ff7040;}</style></defs><title>fire-4</title><rect class="cls-1" x="72" y="56" width="14" height="29"/><rect class="cls-2" x="57" y="71" width="15" height="14"/><rect class="cls-2" x="15" y="71" width="14" height="14"/><rect class="cls-3" x="29" y="71" width="28" height="14"/><rect class="cls-1" x="57" y="57" width="15" height="14"/><rect class="cls-1" y="57" width="15" height="28"/><rect class="cls-2" x="15" y="57" width="42" height="14"/><rect class="cls-2" x="15" y="85" width="57" height="15"/><rect class="cls-1" x="15" y="28" width="57" height="15"/><rect class="cls-2" x="57" y="57" width="15" height="14"/><rect class="cls-4" x="72" y="28" width="14" height="15"/><rect class="cls-1" x="43" y="14" width="14" height="14"/><rect class="cls-4" x="57" y="14" width="29" height="14"/><rect class="cls-4" x="29" y="14" width="14" height="14"/><rect class="cls-4" x="43" width="14" height="14"/><rect class="cls-1" y="43" width="86" height="14"/></svg>